<mxfile host="app.diagrams.net" modified="2022-07-20T03:22:37.255Z" agent="5.0 (Windows NT 10.0; Win64; x64) AppleWebKit/537.36 (KHTML, like Gecko) Chrome/103.0.0.0 Safari/537.36" etag="hH2XBgBmTiJLGBxvBthE" version="20.1.1" type="github" pages="2">
  <diagram id="zVpmOitBaODcWo5x5MOA" name="浅克隆">
    <mxGraphModel dx="1038" dy="947" grid="1" gridSize="10" guides="1" tooltips="1" connect="1" arrows="1" fold="1" page="0" pageScale="1" pageWidth="827" pageHeight="1169" math="0" shadow="0">
      <root>
        <mxCell id="0" />
        <mxCell id="1" parent="0" />
        <mxCell id="qj-JnBcPy4llwm3oIY3C-1" value="&lt;p style=&quot;margin:0px;margin-top:4px;text-align:center;&quot;&gt;&lt;i&gt;&amp;lt;&amp;lt;Interface&amp;gt;&amp;gt;&lt;/i&gt;&lt;br&gt;&lt;b&gt;Cloneable&lt;/b&gt;&lt;/p&gt;&lt;hr size=&quot;1&quot;&gt;&lt;p style=&quot;margin:0px;margin-left:4px;&quot;&gt;&lt;br&gt;&lt;/p&gt;&lt;hr size=&quot;1&quot;&gt;&lt;p style=&quot;margin:0px;margin-left:4px;&quot;&gt;+ clone(): &amp;lt;T&amp;gt;&lt;/p&gt;" style="verticalAlign=top;align=left;overflow=fill;fontSize=12;fontFamily=Helvetica;html=1;" parent="1" vertex="1">
          <mxGeometry x="280" width="160" height="160" as="geometry" />
        </mxCell>
        <mxCell id="qj-JnBcPy4llwm3oIY3C-3" value="&lt;p style=&quot;margin:0px;margin-top:4px;text-align:center;&quot;&gt;&lt;b&gt;WeeklyLog&lt;/b&gt;&lt;br&gt;&lt;/p&gt;&lt;hr size=&quot;1&quot;&gt;&lt;p style=&quot;margin:0px;margin-left:4px;&quot;&gt;+ : attachment&lt;/p&gt;&lt;p style=&quot;margin:0px;margin-left:4px;&quot;&gt;+ : name&lt;br&gt;&lt;/p&gt;&lt;p style=&quot;margin:0px;margin-left:4px;&quot;&gt;+ : date&lt;br&gt;&lt;/p&gt;&lt;p style=&quot;margin:0px;margin-left:4px;&quot;&gt;+ : content&lt;/p&gt;&lt;hr size=&quot;1&quot;&gt;&lt;p style=&quot;margin:0px;margin-left:4px;&quot;&gt;+ : clone(): WeeklyLog&lt;/p&gt;" style="verticalAlign=top;align=left;overflow=fill;fontSize=12;fontFamily=Helvetica;html=1;" parent="1" vertex="1">
          <mxGeometry x="600" width="160" height="160" as="geometry" />
        </mxCell>
        <mxCell id="qj-JnBcPy4llwm3oIY3C-7" value="" style="endArrow=block;dashed=1;endFill=0;endSize=12;html=1;rounded=0;exitX=0;exitY=0.5;exitDx=0;exitDy=0;entryX=1;entryY=0.5;entryDx=0;entryDy=0;" parent="1" source="qj-JnBcPy4llwm3oIY3C-3" target="qj-JnBcPy4llwm3oIY3C-1" edge="1">
          <mxGeometry width="160" relative="1" as="geometry">
            <mxPoint x="170" y="290" as="sourcePoint" />
            <mxPoint x="330" y="170" as="targetPoint" />
          </mxGeometry>
        </mxCell>
        <mxCell id="qj-JnBcPy4llwm3oIY3C-8" value="implements" style="edgeLabel;html=1;align=center;verticalAlign=middle;resizable=0;points=[];fontSize=15;" parent="qj-JnBcPy4llwm3oIY3C-7" vertex="1" connectable="0">
          <mxGeometry x="-0.2863" y="-2" relative="1" as="geometry">
            <mxPoint x="-8" y="2" as="offset" />
          </mxGeometry>
        </mxCell>
        <mxCell id="qj-JnBcPy4llwm3oIY3C-15" value="Developer" style="shape=umlActor;verticalLabelPosition=bottom;verticalAlign=top;html=1;fontSize=15;" parent="1" vertex="1">
          <mxGeometry x="1200" width="80" height="160" as="geometry" />
        </mxCell>
        <mxCell id="qj-JnBcPy4llwm3oIY3C-16" style="edgeStyle=none;rounded=0;orthogonalLoop=1;jettySize=auto;html=1;fontSize=15;fillColor=#f8cecc;strokeColor=#b85450;strokeWidth=2;entryX=1;entryY=0.5;entryDx=0;entryDy=0;" parent="1" source="qj-JnBcPy4llwm3oIY3C-15" edge="1" target="qj-JnBcPy4llwm3oIY3C-3">
          <mxGeometry relative="1" as="geometry">
            <mxPoint x="1160" y="79.41" as="sourcePoint" />
            <mxPoint x="770" y="79" as="targetPoint" />
          </mxGeometry>
        </mxCell>
        <mxCell id="qj-JnBcPy4llwm3oIY3C-17" value="调用&lt;b&gt;super.clone()&lt;/b&gt;方法" style="shape=callout;whiteSpace=wrap;html=1;perimeter=calloutPerimeter;position2=0.08;fillColor=#f5f5f5;fontColor=#333333;strokeColor=#666666;size=34;position=0.15;rounded=1;base=21;arcSize=50;" parent="1" vertex="1">
          <mxGeometry x="670" y="-83.75" width="180" height="83.75" as="geometry" />
        </mxCell>
        <mxCell id="K-pCl3WhVcs6JHkBC39D-2" value="&lt;p style=&quot;margin:0px;margin-top:4px;text-align:center;&quot;&gt;&lt;b&gt;Attachment&lt;/b&gt;&lt;br&gt;&lt;/p&gt;&lt;hr size=&quot;1&quot;&gt;&lt;p style=&quot;margin:0px;margin-left:4px;&quot;&gt;+ : name&lt;br&gt;&lt;/p&gt;&lt;hr size=&quot;1&quot;&gt;&lt;p style=&quot;margin:0px;margin-left:4px;&quot;&gt;+ : download&lt;span style=&quot;background-color: initial;&quot;&gt;(): void&lt;/span&gt;&lt;/p&gt;" style="verticalAlign=top;align=left;overflow=fill;fontSize=12;fontFamily=Helvetica;html=1;" parent="1" vertex="1">
          <mxGeometry x="520" y="280" width="160" height="160" as="geometry" />
        </mxCell>
        <mxCell id="K-pCl3WhVcs6JHkBC39D-3" value="" style="endArrow=diamondThin;endFill=0;endSize=24;html=1;rounded=0;exitX=0.5;exitY=0;exitDx=0;exitDy=0;entryX=0.5;entryY=1;entryDx=0;entryDy=0;" parent="1" source="K-pCl3WhVcs6JHkBC39D-2" target="qj-JnBcPy4llwm3oIY3C-3" edge="1">
          <mxGeometry width="160" relative="1" as="geometry">
            <mxPoint x="690" y="330" as="sourcePoint" />
            <mxPoint x="850" y="330" as="targetPoint" />
          </mxGeometry>
        </mxCell>
      </root>
    </mxGraphModel>
  </diagram>
  <diagram id="wjQC7-GsaiSAdKB9Sn5V" name="深克隆">
    <mxGraphModel dx="1038" dy="947" grid="1" gridSize="10" guides="1" tooltips="1" connect="1" arrows="1" fold="1" page="0" pageScale="1" pageWidth="827" pageHeight="1169" math="0" shadow="0">
      <root>
        <mxCell id="0" />
        <mxCell id="1" parent="0" />
        <mxCell id="W4x3K55plh8RDqdF3BDO-1" value="&lt;p style=&quot;margin:0px;margin-top:4px;text-align:center;&quot;&gt;&lt;i&gt;&amp;lt;&amp;lt;Interface&amp;gt;&amp;gt;&lt;/i&gt;&lt;br&gt;&lt;b&gt;Serializable&lt;/b&gt;&lt;/p&gt;&lt;hr size=&quot;1&quot;&gt;&lt;p style=&quot;margin:0px;margin-left:4px;&quot;&gt;&lt;br&gt;&lt;/p&gt;&lt;hr size=&quot;1&quot;&gt;&lt;p style=&quot;margin:0px;margin-left:4px;&quot;&gt;&lt;br&gt;&lt;/p&gt;" style="verticalAlign=top;align=left;overflow=fill;fontSize=12;fontFamily=Helvetica;html=1;" vertex="1" parent="1">
          <mxGeometry x="280" width="160" height="160" as="geometry" />
        </mxCell>
        <mxCell id="W4x3K55plh8RDqdF3BDO-2" value="&lt;p style=&quot;margin:0px;margin-top:4px;text-align:center;&quot;&gt;&lt;b&gt;WeeklyLog&lt;/b&gt;&lt;br&gt;&lt;/p&gt;&lt;hr size=&quot;1&quot;&gt;&lt;p style=&quot;margin:0px;margin-left:4px;&quot;&gt;+ : attachment&lt;/p&gt;&lt;p style=&quot;margin:0px;margin-left:4px;&quot;&gt;+ : name&lt;br&gt;&lt;/p&gt;&lt;p style=&quot;margin:0px;margin-left:4px;&quot;&gt;+ : date&lt;br&gt;&lt;/p&gt;&lt;p style=&quot;margin:0px;margin-left:4px;&quot;&gt;+ : content&lt;/p&gt;&lt;hr size=&quot;1&quot;&gt;&lt;p style=&quot;margin:0px;margin-left:4px;&quot;&gt;+ : deepClone(): WeeklyLog&lt;/p&gt;" style="verticalAlign=top;align=left;overflow=fill;fontSize=12;fontFamily=Helvetica;html=1;" vertex="1" parent="1">
          <mxGeometry x="600" width="160" height="160" as="geometry" />
        </mxCell>
        <mxCell id="W4x3K55plh8RDqdF3BDO-3" value="" style="endArrow=block;dashed=1;endFill=0;endSize=12;html=1;rounded=0;exitX=0;exitY=0.5;exitDx=0;exitDy=0;entryX=1;entryY=0.5;entryDx=0;entryDy=0;" edge="1" parent="1" source="W4x3K55plh8RDqdF3BDO-2" target="W4x3K55plh8RDqdF3BDO-1">
          <mxGeometry width="160" relative="1" as="geometry">
            <mxPoint x="170" y="290" as="sourcePoint" />
            <mxPoint x="330" y="170" as="targetPoint" />
          </mxGeometry>
        </mxCell>
        <mxCell id="W4x3K55plh8RDqdF3BDO-4" value="implements" style="edgeLabel;html=1;align=center;verticalAlign=middle;resizable=0;points=[];fontSize=15;" vertex="1" connectable="0" parent="W4x3K55plh8RDqdF3BDO-3">
          <mxGeometry x="-0.2863" y="-2" relative="1" as="geometry">
            <mxPoint x="-8" y="2" as="offset" />
          </mxGeometry>
        </mxCell>
        <mxCell id="W4x3K55plh8RDqdF3BDO-5" value="Developer" style="shape=umlActor;verticalLabelPosition=bottom;verticalAlign=top;html=1;fontSize=15;" vertex="1" parent="1">
          <mxGeometry x="1200" width="80" height="160" as="geometry" />
        </mxCell>
        <mxCell id="W4x3K55plh8RDqdF3BDO-6" style="edgeStyle=none;rounded=0;orthogonalLoop=1;jettySize=auto;html=1;fontSize=15;fillColor=#f8cecc;strokeColor=#b85450;strokeWidth=2;entryX=1;entryY=0.5;entryDx=0;entryDy=0;" edge="1" parent="1" source="W4x3K55plh8RDqdF3BDO-5" target="W4x3K55plh8RDqdF3BDO-2">
          <mxGeometry relative="1" as="geometry">
            <mxPoint x="1160" y="79.41" as="sourcePoint" />
            <mxPoint x="770" y="79" as="targetPoint" />
          </mxGeometry>
        </mxCell>
        <mxCell id="W4x3K55plh8RDqdF3BDO-7" value="采用序列化的方式深度克隆" style="shape=callout;whiteSpace=wrap;html=1;perimeter=calloutPerimeter;position2=0.08;fillColor=#f5f5f5;fontColor=#333333;strokeColor=#666666;size=34;position=0.15;rounded=1;base=21;arcSize=50;" vertex="1" parent="1">
          <mxGeometry x="670" y="-83.75" width="180" height="83.75" as="geometry" />
        </mxCell>
        <mxCell id="W4x3K55plh8RDqdF3BDO-8" value="&lt;p style=&quot;margin:0px;margin-top:4px;text-align:center;&quot;&gt;&lt;b&gt;Attachment&lt;/b&gt;&lt;br&gt;&lt;/p&gt;&lt;hr size=&quot;1&quot;&gt;&lt;p style=&quot;margin:0px;margin-left:4px;&quot;&gt;+ : name&lt;br&gt;&lt;/p&gt;&lt;hr size=&quot;1&quot;&gt;&lt;p style=&quot;margin:0px;margin-left:4px;&quot;&gt;+ : download&lt;span style=&quot;background-color: initial;&quot;&gt;(): void&lt;/span&gt;&lt;/p&gt;" style="verticalAlign=top;align=left;overflow=fill;fontSize=12;fontFamily=Helvetica;html=1;" vertex="1" parent="1">
          <mxGeometry x="440" y="280" width="160" height="160" as="geometry" />
        </mxCell>
        <mxCell id="W4x3K55plh8RDqdF3BDO-9" value="" style="endArrow=diamondThin;endFill=0;endSize=24;html=1;rounded=0;exitX=0.5;exitY=0;exitDx=0;exitDy=0;entryX=0.5;entryY=1;entryDx=0;entryDy=0;" edge="1" parent="1" source="W4x3K55plh8RDqdF3BDO-8" target="W4x3K55plh8RDqdF3BDO-2">
          <mxGeometry width="160" relative="1" as="geometry">
            <mxPoint x="690" y="330" as="sourcePoint" />
            <mxPoint x="850" y="330" as="targetPoint" />
          </mxGeometry>
        </mxCell>
        <mxCell id="W4x3K55plh8RDqdF3BDO-10" value="" style="endArrow=block;dashed=1;endFill=0;endSize=12;html=1;rounded=0;exitX=0.25;exitY=0;exitDx=0;exitDy=0;entryX=0.5;entryY=1;entryDx=0;entryDy=0;" edge="1" parent="1" source="W4x3K55plh8RDqdF3BDO-8" target="W4x3K55plh8RDqdF3BDO-1">
          <mxGeometry width="160" relative="1" as="geometry">
            <mxPoint x="600" y="180" as="sourcePoint" />
            <mxPoint x="440" y="180" as="targetPoint" />
          </mxGeometry>
        </mxCell>
        <mxCell id="W4x3K55plh8RDqdF3BDO-11" value="implements" style="edgeLabel;html=1;align=center;verticalAlign=middle;resizable=0;points=[];fontSize=15;" vertex="1" connectable="0" parent="W4x3K55plh8RDqdF3BDO-10">
          <mxGeometry x="-0.2863" y="-2" relative="1" as="geometry">
            <mxPoint x="-8" y="2" as="offset" />
          </mxGeometry>
        </mxCell>
      </root>
    </mxGraphModel>
  </diagram>
</mxfile>
